# xmcd
#
# Track frame offsets:
#	150
#	17147
#	35151
#	50233
#	67995
#	83899
#	101210
#	116038
#	133690
#	152875
#	169354
#	187296
#	204111
#	219282
#	237535
#	252949
#
# Disc length: 3560 seconds
#
# Revision: 0
# Processed by: cddbd v1.5.2PL0 Copyright (c) Steve Scherf et al.
# Submitted via: EasyCDDAExtractor 16.0.6.1
#
DISCID=f30de610
DTITLE=Πάνος Κιάμος - Best Of
DYEAR=2012
DGENRE=Λαϊκά
TTITLE0=Φωτιά με φωτιά (Πάνος Κιάμος)
TTITLE1=Χαρτορίχτρα (Πάνος Κιάμος)
TTITLE2=Σφύριξα κι έληξες (Πάνος Κιάμος)
TTITLE3=Ολοκαίνουργιος (Πάνος Κιάμος)
TTITLE4=Έχω πονέσει γι΄αυτή (Πάνος Κιάμος)
TTITLE5=Θα βγαίνω θα πίνω (Πάνος Κιάμος)
TTITLE6=Έσε με μια νύχτα μόνο (Πάνος Κιάμος)
TTITLE7=Απο Δευτέρα (Πάνος Κιάμος)
TTITLE8=Τι παθαίνω και πεθαίνω (Πάνος Κιάμος)
TTITLE9=Ένα μαγαζί απόψε (Πάνος Κιάμος)
TTITLE10=Στη φωτιά το χέρι μου (Πάνος Κιάμος)
TTITLE11=Απόψε φόρα τα καλά σου (Πάνος Κιάμος)
TTITLE12=Ανεμοθύελλα (Πάνος Κιάμος)
TTITLE13=Προσεχώς (Πάνος Κιάμος)
TTITLE14=Άντε να μην τρελαθώ (Πάνος Κιάμος)
TTITLE15=Κάτσε και μέτρα (Πάνος Κιάμος)
EXTD=
EXTT0=
EXTT1=
EXTT2=
EXTT3=
EXTT4=
EXTT5=
EXTT6=
EXTT7=
EXTT8=
EXTT9=
EXTT10=
EXTT11=
EXTT12=
EXTT13=
EXTT14=
EXTT15=
PLAYORDER=
